<?xml version="1.0" encoding="UTF-8" standalone="no"?>
<!-- Creator: CorelDRAW -->

<svg
   xml:space="preserve"
   width="156.91197mm"
   height="36.923664mm"
   version="1.1"
   style="clip-rule:evenodd;fill-rule:evenodd;image-rendering:optimizeQuality;shape-rendering:geometricPrecision;text-rendering:geometricPrecision"
   viewBox="0 0 14548.547 3423.4768"
   id="svg42"
   xmlns:xlink="http://www.w3.org/1999/xlink"
   xmlns="http://www.w3.org/2000/svg"
   xmlns:svg="http://www.w3.org/2000/svg">
 <defs
   id="defs26"><style
     type="text/css"
     id="style9">
   <![CDATA[
    .fil1 {fill:black;fill-rule:nonzero}
    .fil3 {fill:#64748B;fill-rule:nonzero}
    .fil0 {fill:url(#id0);fill-rule:nonzero}
    .fil2 {fill:url(#id1);fill-rule:nonzero}
    .fil4 {fill:url(#id2);fill-rule:nonzero;fill-opacity:0.600000}
   ]]>
  </style><linearGradient
     id="id0"
     gradientUnits="objectBoundingBox"
     x1="0.24612899"
     y1="0"
     x2="0.75387102"
     y2="1.24613">
   <stop
   offset="0"
   style="stop-opacity:1; stop-color:#FF6B00"
   id="stop11" />
   <stop
   offset="0.501961"
   style="stop-opacity:1; stop-color:darkorange"
   id="stop13" />
   <stop
   offset="1"
   style="stop-opacity:1; stop-color:gold"
   id="stop15" />
  </linearGradient><linearGradient
     id="id1"
     gradientUnits="userSpaceOnUse"
     x1="8562.8496"
     y1="915.71002"
     x2="13981.31"
     y2="1639.29">
   <stop
   offset="0"
   style="stop-opacity:1; stop-color:#FF6B00"
   id="stop18" />
   <stop
   offset="0.478431"
   style="stop-opacity:1; stop-color:darkorange"
   id="stop20" />
   <stop
   offset="1"
   style="stop-opacity:1; stop-color:gold"
   id="stop22" />
  </linearGradient><linearGradient
     id="id2"
     gradientUnits="userSpaceOnUse"
     xlink:href="#id0"
     x1="4789"
     y1="3469.9199"
     x2="8593.9502"
     y2="3377.04">
  </linearGradient><linearGradient
     xlink:href="#id0"
     id="linearGradient252"
     gradientUnits="userSpaceOnUse"
     x1="790.87531"
     y1="0.0074285958"
     x2="2422.3755"
     y2="4004.1299"
     gradientTransform="scale(1.3093356,0.76374614)" /><linearGradient
     xlink:href="#id0"
     id="linearGradient254"
     gradientUnits="userSpaceOnUse"
     x1="3382.3738"
     y1="1275.3982"
     x2="3586.791"
     y2="1777.0906"
     gradientTransform="scale(0.56050618,1.7841017)" /></defs>
 <g
   id="Camada_x0020_1"
   transform="translate(-0.00294525,-0.00939114)">
  <metadata
   id="CorelCorpID_0Corel-Layer" />
  <path
   class="fil0"
   d="m 2.54,2454.11 c -0.12,-0.01 -0.29,-0.03 -0.45,-0.06 -1.39,-0.31 -2.31,-1.56 -2.04,-2.82 0.03,-0.15 0.08,-0.31 0.15,-0.45 L 1241.05,120.11 c 2.04,-3.73 5.95,-6.05 10.2,-6.05 4.26,0 8.17,2.33 10.21,6.05 492.09,904.33 755.7,1390.5 790.81,1458.49 82.62,160.08 158.09,273.5 226.43,340.28 385.98,377.72 992.21,392.44 1381.29,19.36 304.66,-292.26 392.96,-724.73 225.14,-1110.97 -119.8,-275.99 -373.08,-490.54 -672.32,-561.03 -495.2,-116.18 -980.84,145.35 -1159.25,621.71 -1.16,3.29 -4.28,5.5 -7.78,5.5 -1.04,0 -2.08,-0.2 -3.05,-0.59 l -209.9,-82.1 c -2.98,-1.16 -4.94,-4.02 -4.94,-7.21 0,-0.98 0.19,-1.95 0.55,-2.86 118.42,-289.69 301.04,-503.55 547.86,-641.6 727.57,-406.38 1641.8,0.78 1806.52,824.13 145.1,724.47 -373.86,1404.27 -1107.1,1461.84 -373.6,29.18 -727.57,-110.24 -986.01,-378.24 -73.5,-76.07 -156.72,-201.99 -249.67,-377.72 -69.2,-131.16 -183.82,-342.79 -343.9,-634.88 -1.91,-3.44 -5.54,-5.58 -9.48,-5.58 -4.04,0 -7.76,2.25 -9.62,5.84 L 735.02,2447.91 c -2.02,3.77 -5.97,6.18 -10.25,6.19 H 464.94 c 0.01,0 0,0 -0.01,0 -1.14,0 -2.06,-0.93 -2.06,-2.07 0,-0.36 0.09,-0.71 0.28,-1.03 l 877.3,-1648 c 3.51,-6.61 5.35,-14.01 5.35,-21.49 0,-8.04 -2.11,-15.95 -6.11,-22.91 l -76.94,-133.49 c -2.02,-3.54 -5.79,-5.73 -9.87,-5.73 -4.18,0 -8.03,2.31 -10,5.99 L 272.61,2447.9 c -1.95,3.71 -5.98,6.14 -10.41,6.19 L 2.55,2454.1 Z"
   id="path29"
   style="fill:url(#linearGradient252)" />
  <path
   class="fil0"
   d="m 1852.7,2275.44 h 200.86 c 6.85,0 12.4,5.55 12.4,12.4 v 693.48 c 0,6.83 -5.54,12.38 -12.39,12.38 l -200.87,0.02 c -6.83,-0.02 -12.39,-5.56 -12.39,-12.41 l -0.01,-693.47 c 0.01,-6.84 5.56,-12.4 12.41,-12.4 z"
   id="path31"
   style="fill:url(#linearGradient254)" />
  <path
   class="fil1"
   d="m 5767.32,1686.72 h -613.78 l -101.55,293.65 H 4727.43 L 5281.6,437.09 h 359.87 l 554.16,1543.28 h -326.76 l -101.56,-293.65 z m -83.9,-247.28 -222.99,-644.69 -223,644.69 h 445.98 z m 984.7,-505.59 c 39.74,-55.94 94.57,-102.67 164.48,-140.2 69.92,-37.53 149.77,-56.3 239.55,-56.3 104.5,0 199.07,25.76 283.71,77.27 84.63,51.51 151.6,124.74 200.91,219.68 49.32,94.94 73.97,204.96 73.97,330.08 0,125.11 -24.65,235.87 -73.97,332.28 -49.31,96.41 -116.28,171.11 -200.91,224.1 -84.63,52.99 -179.2,79.48 -283.71,79.48 -89.79,0 -168.9,-18.4 -237.34,-55.19 -68.44,-36.8 -124.01,-83.16 -166.7,-139.1 v 757.29 H 6359.02 V 757.23 h 309.09 v 176.63 z m 646.9,430.53 c 0,-73.59 -15.09,-137.25 -45.26,-190.98 -30.17,-53.72 -69.91,-94.56 -119.23,-122.54 -49.31,-27.96 -102.66,-41.95 -160.07,-41.95 -55.93,0 -108.54,14.35 -157.86,43.05 -49.31,28.71 -89.05,70.29 -119.22,124.74 -30.18,54.46 -45.26,118.49 -45.26,192.08 0,73.6 15.09,137.62 45.26,192.08 30.17,54.46 69.91,96.05 119.22,124.74 49.32,28.71 101.93,43.06 157.86,43.06 57.41,0 110.76,-14.72 160.07,-44.16 49.32,-29.44 89.06,-71.38 119.23,-125.85 30.18,-54.46 45.26,-119.23 45.26,-194.29 z m 1633.81,-22.08 c 0,44.15 -2.94,83.9 -8.83,119.23 h -894.18 c 7.36,88.31 38.26,157.49 92.73,207.53 54.46,50.05 121.43,75.07 200.92,75.07 114.8,0 196.5,-49.32 245.06,-147.93 h 333.39 c -35.33,117.75 -103.03,214.53 -203.12,290.34 -100.09,75.8 -223,113.7 -368.71,113.7 -117.75,0 -223.36,-26.13 -316.83,-78.37 -93.47,-52.26 -166.33,-126.22 -218.57,-221.89 -52.26,-95.68 -78.38,-206.07 -78.38,-331.18 0,-126.58 25.76,-237.71 77.28,-333.39 51.51,-95.67 123.64,-169.27 216.37,-220.78 92.73,-51.51 199.44,-77.27 320.14,-77.27 116.28,0 220.42,25.02 312.41,75.06 91.99,50.04 163.38,121.06 214.16,213.06 50.78,91.99 76.17,197.6 76.17,316.83 z m -320.14,-88.31 c -1.47,-79.49 -30.17,-143.15 -86.11,-190.98 -55.93,-47.83 -124.37,-71.75 -205.33,-71.75 -76.54,0 -140.93,23.18 -193.19,69.55 -52.25,46.37 -84.26,110.76 -96.04,193.19 h 580.66 z m 1154.7,726.38 -251.69,-379.75 -223,379.75 H 8977.52 L 9377.14,1366.59 8973.1,757.23 h 348.84 l 249.48,377.54 225.2,-377.54 h 331.17 l -401.82,609.36 406.24,613.78 h -348.84 z"
   id="path33"
   style="fill:#ffffff" />
  <path
   class="fil2"
   d="m 11645.24,929.43 c 0,89.79 -20.61,171.85 -61.82,246.17 -41.21,74.33 -104.5,134.31 -189.88,179.95 -85.37,45.63 -191.34,68.43 -317.93,68.43 h -234.03 v 556.38 h -377.54 V 430.45 h 611.57 c 123.64,0 228.15,21.34 313.52,64.03 85.37,42.69 149.4,101.56 192.08,176.63 42.69,75.06 64.03,161.17 64.03,258.31 z m -598.33,194.29 c 72.13,0 125.85,-16.92 161.17,-50.77 35.33,-33.86 52.99,-81.69 52.99,-143.52 0,-61.81 -17.66,-109.65 -52.99,-143.51 -35.33,-33.85 -89.05,-50.78 -161.17,-50.78 h -205.33 v 388.58 z m 2093.03,-693.26 v 1549.91 h -377.55 V 1342.3 h -587.28 v 638.07 h -377.54 V 430.46 h 377.54 v 607.16 h 587.28 V 430.46 Z m 1408.61,498.97 c 0,89.79 -20.61,171.85 -61.82,246.17 -41.21,74.33 -104.5,134.31 -189.88,179.95 -85.37,45.63 -191.34,68.43 -317.93,68.43 h -234.03 v 556.38 h -377.54 V 430.45 h 611.57 c 123.64,0 228.15,21.34 313.52,64.03 85.37,42.69 149.4,101.56 192.08,176.63 42.69,75.06 64.03,161.17 64.03,258.31 z m -598.33,194.29 c 72.13,0 125.85,-16.92 161.17,-50.77 35.33,-33.86 52.99,-81.69 52.99,-143.52 0,-61.81 -17.66,-109.65 -52.99,-143.51 -35.33,-33.85 -89.05,-50.78 -161.17,-50.78 h -205.33 v 388.58 z"
   id="path35"
   style="fill:url(#id1)" />
  <path
   class="fil3"
   d="M 4697.84,3080.04 V 2758.8 h 126.14 c 24.29,0 45.04,4.27 62.33,12.88 17.23,8.68 30.4,20.82 39.53,36.5 9.12,15.68 13.69,34.15 13.69,55.42 0,21.12 -4.64,39.37 -13.98,54.75 -9.35,15.38 -22.82,27.16 -40.33,35.33 -17.51,8.24 -38.71,12.29 -63.36,12.29 h -84.78 v -53.21 h 76.76 c 12.95,0 23.7,-1.91 32.38,-5.74 8.61,-3.83 15.09,-9.42 19.51,-16.71 4.34,-7.36 6.55,-16.26 6.55,-26.71 0,-10.82 -2.21,-19.87 -6.55,-27.31 -4.41,-7.44 -10.89,-13.1 -19.51,-17 -8.68,-3.97 -19.5,-5.96 -32.6,-5.96 h -49.83 v 266.71 h -65.94 z m 179.58,0 -77.13,-145.94 h 71.1 l 78.75,145.94 h -72.71 z m 184.86,0 V 2758.8 h 218.66 v 55.19 h -152.72 v 76.76 h 141.01 v 54.09 h -141.01 v 80 h 152.94 v 55.19 h -218.88 z m 319.7,0 110.61,-321.24 h 85.81 l 112.74,321.24 h -73.3 l -51.29,-155.21 c -6.18,-20.17 -12.43,-41.88 -18.84,-65.28 -6.41,-23.33 -13.25,-49.01 -20.39,-77.05 h 15.09 c -7.07,28.04 -13.61,53.79 -19.65,77.27 -6.04,23.55 -12.07,45.19 -18.1,65.06 l -50.2,155.21 h -72.49 z m 69.25,-73.53 v -51.95 h 170.74 v 51.95 z m 473.95,78.09 c -28.63,-0.07 -54.24,-6.55 -76.84,-19.65 -22.67,-13.1 -40.48,-31.94 -53.5,-56.52 -13.03,-24.58 -19.51,-54.17 -19.51,-88.83 0,-34.73 6.56,-64.47 19.57,-89.12 13.1,-24.65 30.99,-43.49 53.73,-56.59 22.74,-13.1 48.2,-19.65 76.54,-19.65 18.4,0 35.55,2.57 51.44,7.8 15.9,5.16 29.96,12.73 42.17,22.6 12.22,9.93 22.22,22 30.03,36.28 7.87,14.2 13.03,30.39 15.46,48.5 h -66.68 c -1.54,-8.91 -4.41,-16.93 -8.6,-24 -4.13,-6.99 -9.35,-12.95 -15.53,-17.89 -6.18,-4.85 -13.18,-8.53 -21.12,-11.11 -7.88,-2.5 -16.49,-3.76 -25.83,-3.76 -17,0 -31.79,4.27 -44.52,12.73 -12.74,8.47 -22.6,20.69 -29.44,36.58 -6.93,15.83 -10.38,35.1 -10.38,57.62 0,22.89 3.46,42.24 10.45,58.14 7,15.89 16.78,27.89 29.44,36.13 12.67,8.17 27.45,12.29 44.46,12.29 9.2,0 17.74,-1.33 25.61,-3.9 7.95,-2.58 15.01,-6.33 21.27,-11.12 6.26,-4.77 11.48,-10.74 15.6,-17.8 4.19,-6.99 7.14,-15.02 8.83,-23.92 h 66.68 c -2.07,15.68 -6.7,30.39 -13.92,44.23 -7.28,13.77 -16.92,26.05 -28.92,36.73 -12,10.75 -26.05,19.06 -42.24,25.1 -16.19,6.04 -34.22,9.05 -54.24,9.12 z m 259.64,-4.56 V 2758.8 h 65.94 v 129.6 h 139.32 v -129.6 h 66.02 v 321.24 h -66.02 V 2943.6 h -139.32 v 136.44 z M 6746.64,2814 v -55.19 h 262.22 V 2814 h -97.88 v 266.04 h -66.02 V 2814 Z m 379.96,266.04 V 2758.8 h 65.94 v 129.6 h 139.32 v -129.6 h 66.02 v 321.24 h -66.02 V 2943.6 h -139.32 v 136.44 z m 397.48,0 V 2758.8 h 218.66 v 55.19 h -152.72 v 76.76 h 141.01 v 54.09 h -141.01 v 80 h 152.94 v 55.19 h -218.88 z m 501.63,0 110.61,-321.24 h 85.81 l 112.74,321.24 h -73.3 l -51.29,-155.21 c -6.18,-20.17 -12.43,-41.88 -18.84,-65.28 -6.41,-23.33 -13.25,-49.01 -20.39,-77.05 h 15.09 c -7.07,28.04 -13.61,53.79 -19.65,77.27 -6.04,23.55 -12.07,45.19 -18.1,65.06 l -50.2,155.21 h -72.49 z m 69.25,-73.53 v -51.95 h 170.74 v 51.95 z m 347.07,73.53 V 2758.8 h 125.71 c 24.28,0 45.03,4.56 62.33,13.69 17.22,9.12 30.39,21.79 39.52,37.9 9.12,16.19 13.69,34.88 13.69,56.22 0,21.27 -4.65,39.96 -13.92,56.01 -9.27,16.11 -22.59,28.7 -39.96,37.75 -17.44,9.05 -38.41,13.61 -62.99,13.61 h -82.57 v -53.72 h 73.74 c 12.95,0 23.77,-2.28 32.46,-6.78 8.68,-4.56 15.23,-10.81 19.5,-18.91 4.34,-8.02 6.48,-17.37 6.48,-27.96 0,-10.82 -2.14,-20.17 -6.48,-28.04 -4.27,-7.95 -10.82,-14.13 -19.5,-18.54 -8.69,-4.49 -19.58,-6.7 -32.68,-6.7 h -49.38 v 266.71 h -65.94 z m 359.65,0 V 2758.8 h 218.66 v 55.19 h -152.72 v 76.76 h 141.01 v 54.09 h -141.01 v 80 h 152.94 v 55.19 h -218.88 z m 324.55,0 132.62,-188.7 v 49.83 L 9136.61,2758.8 h 76.09 l 35.33,54.09 c 6.04,9.35 11.26,18.03 15.53,25.98 4.34,8.02 8.32,15.67 12,23.11 3.67,7.36 7.65,15.01 11.99,22.97 h -17.51 c 4.49,-7.96 8.54,-15.6 12.29,-22.97 3.76,-7.44 7.8,-15.09 12.21,-23.11 4.35,-7.95 9.64,-16.63 15.83,-25.98 l 35.77,-54.09 h 74.4 l -120.11,178.91 v -47.4 l 129.6,189.73 h -77.64 l -44.82,-67.49 c -5.44,-8.32 -10.08,-15.6 -13.83,-21.85 -3.68,-6.26 -7.14,-12.22 -10.23,-17.96 -3.1,-5.67 -6.56,-11.92 -10.45,-18.84 h 10.38 c -3.9,6.77 -7.44,13.03 -10.6,18.77 -3.16,5.74 -6.63,11.78 -10.3,18.03 -3.76,6.26 -8.54,13.54 -14.28,21.85 l -46.15,67.49 z"
   id="path37"
   style="fill:#ffffff" />
  <path
   class="fil4"
   d="m 4719.09,3325.36 h 3826.93 c 27.09,-0.01 49.07,21.96 49.07,49.06 l -0.01,0.01 c 0.01,27.08 -21.96,49.06 -49.06,49.06 H 4719.09 c -27.08,0 -49.06,-21.97 -49.06,-49.07 l -0.01,0.01 c 0.01,-27.1 21.98,-49.08 49.08,-49.08 z"
   id="path39"
   style="fill:url(#id2)" />
 </g>
</svg>
